<svg xmlns="http://www.w3.org/2000/svg" width="1536" height="1024" viewBox="0 0 1536 1024">
  <defs>
    <linearGradient id="cabinetBody" x1="0" x2="0" y1="0" y2="1">
      <stop offset="0" stop-color="#15151b"/>
      <stop offset="0.45" stop-color="#050509"/>
      <stop offset="1" stop-color="#0d0b0d"/>
    </linearGradient>
    <linearGradient id="edgeGlow" x1="0" x2="1">
      <stop offset="0" stop-color="#e94b10"/>
      <stop offset="0.5" stop-color="#ff9f1c"/>
      <stop offset="1" stop-color="#e94b10"/>
    </linearGradient>
    <linearGradient id="deck" x1="0" x2="0" y1="0" y2="1">
      <stop offset="0" stop-color="#1b1717"/>
      <stop offset="0.62" stop-color="#0a0809"/>
      <stop offset="1" stop-color="#020203"/>
    </linearGradient>
    <radialGradient id="buttonRed" cx="0.35" cy="0.25" r="0.75">
      <stop offset="0" stop-color="#ffb4aa"/>
      <stop offset="0.3" stop-color="#e83b33"/>
      <stop offset="1" stop-color="#6f0808"/>
    </radialGradient>
    <radialGradient id="buttonOrange" cx="0.35" cy="0.25" r="0.75">
      <stop offset="0" stop-color="#ffd3a1"/>
      <stop offset="0.35" stop-color="#ff7a18"/>
      <stop offset="1" stop-color="#8e2a00"/>
    </radialGradient>
    <radialGradient id="buttonWhite" cx="0.35" cy="0.25" r="0.75">
      <stop offset="0" stop-color="#ffffff"/>
      <stop offset="0.45" stop-color="#e9e0d3"/>
      <stop offset="1" stop-color="#77736c"/>
    </radialGradient>
    <filter id="softGlow" x="-40%" y="-40%" width="180%" height="180%">
      <feGaussianBlur stdDeviation="5" result="b"/>
      <feMerge><feMergeNode in="b"/><feMergeNode in="SourceGraphic"/></feMerge>
    </filter>
    <filter id="shadow" x="-30%" y="-30%" width="160%" height="160%">
      <feDropShadow dx="0" dy="20" stdDeviation="18" flood-color="#000" flood-opacity="0.75"/>
    </filter>
    <pattern id="speckles" width="18" height="18" patternUnits="userSpaceOnUse">
      <circle cx="4" cy="7" r="0.8" fill="#ffffff" opacity="0.06"/>
      <circle cx="13" cy="14" r="0.7" fill="#ff7a18" opacity="0.08"/>
    </pattern>
  </defs>

  <rect width="1536" height="1024" fill="#03050a"/>
  <path d="M155 0h1226c16 0 28 13 28 29v117c0 28 21 43 36 71 16 29 21 68 18 117l-31 568c-3 62-53 110-115 110H219c-62 0-112-48-115-110L73 334c-3-49 2-88 18-117 15-28 36-43 36-71V29c0-16 12-29 28-29z" fill="url(#cabinetBody)" filter="url(#shadow)"/>
  <path d="M155 0h1226c16 0 28 13 28 29v117c0 28 21 43 36 71 16 29 21 68 18 117l-31 568c-3 62-53 110-115 110H219c-62 0-112-48-115-110L73 334c-3-49 2-88 18-117 15-28 36-43 36-71V29c0-16 12-29 28-29z" fill="url(#speckles)" opacity="0.75"/>

  <path d="M148 0c-13 115 10 170-23 226-20 34-30 75-27 122l28 535c3 50 44 89 94 89" fill="none" stroke="url(#edgeGlow)" stroke-width="5" filter="url(#softGlow)" opacity="0.95"/>
  <path d="M1388 0c13 115-10 170 23 226 20 34 30 75 27 122l-28 535c-3 50-44 89-94 89" fill="none" stroke="url(#edgeGlow)" stroke-width="5" filter="url(#softGlow)" opacity="0.95"/>

  <rect x="176" y="12" width="1184" height="136" rx="17" fill="#07070a" stroke="#2e1e16" stroke-width="2"/>
  <rect x="190" y="24" width="1156" height="112" rx="10" fill="#0e1118" opacity="0.93"/>
  <rect x="190" y="24" width="1156" height="112" rx="10" fill="url(#speckles)" opacity="0.7"/>
  <path d="M192 139h1152" stroke="#ff7a18" stroke-width="2" opacity="0.7"/>

  <rect x="242" y="178" width="1052" height="626" rx="36" fill="#030305" stroke="#181b24" stroke-width="5"/>
  <rect x="266" y="202" width="1004" height="578" rx="28" fill="#12141c" stroke="#222832" stroke-width="2"/>
  <rect x="296" y="226" width="944" height="534" rx="24" fill="#04060b" stroke="#0b1d2a" stroke-width="2"/>
  <rect x="358" y="228" width="820" height="538" rx="31" fill="#020814" stroke="#1a455b" stroke-width="1" opacity="0.5"/>
  <path d="M310 232c40-23 257-30 458-28 229 2 444 14 473 41" stroke="#ffffff" stroke-width="3" opacity="0.05" fill="none"/>
  <path d="M310 755c74 18 238 28 459 28 212 0 381-10 463-31" stroke="#000000" stroke-width="10" opacity="0.55" fill="none"/>

  <g opacity="0.88">
    <rect x="126" y="210" width="116" height="580" rx="10" fill="#090b10" stroke="#35170d"/>
    <rect x="1294" y="210" width="116" height="580" rx="10" fill="#090b10" stroke="#35170d"/>
    <path d="M181 458c-25 20-36 52-27 85 10 37 40 63 72 75" fill="none" stroke="#ff5f00" stroke-width="2" stroke-dasharray="3 7" opacity="0.85"/>
    <path d="M1355 458c25 20 36 52 27 85-10 37-40 63-72 75" fill="none" stroke="#ff5f00" stroke-width="2" stroke-dasharray="3 7" opacity="0.85"/>
    <circle cx="184" cy="560" r="37" fill="none" stroke="#ff5f00" stroke-width="2" stroke-dasharray="2 6" opacity="0.65"/>
    <circle cx="1352" cy="560" r="37" fill="none" stroke="#ff5f00" stroke-width="2" stroke-dasharray="2 6" opacity="0.65"/>
    <path d="M150 716h64m-52 22h42m-34 22h34" stroke="#ff5f00" stroke-width="2" opacity="0.75"/>
    <path d="M1322 716h64m-42 22h42m-34 22h34" stroke="#ff5f00" stroke-width="2" opacity="0.75"/>
  </g>

  <path d="M156 790h1224c25 0 46 20 46 46v120c0 29-23 52-52 52H162c-29 0-52-23-52-52V836c0-26 21-46 46-46z" fill="url(#deck)" stroke="#ff7a18" stroke-width="2"/>
  <path d="M156 808h1224" stroke="#ffffff" stroke-width="2" opacity="0.06"/>
  <path d="M132 970h1272" stroke="#ff7a18" stroke-width="1" opacity="0.6"/>

  <g filter="url(#softGlow)">
    <ellipse cx="420" cy="878" rx="64" ry="18" fill="#050506" stroke="#2b2522" stroke-width="3"/>
    <rect x="406" y="820" width="28" height="64" rx="13" fill="#191718"/>
    <circle cx="420" cy="802" r="45" fill="url(#buttonRed)" stroke="#3b0908" stroke-width="4"/>
    <circle cx="420" cy="787" r="13" fill="#ffb2a2" opacity="0.55"/>
  </g>
  <g filter="url(#softGlow)">
    <circle cx="578" cy="862" r="33" fill="url(#buttonRed)" stroke="#3b0908" stroke-width="4"/>
    <circle cx="676" cy="862" r="33" fill="url(#buttonRed)" stroke="#3b0908" stroke-width="4"/>
    <circle cx="775" cy="862" r="33" fill="url(#buttonOrange)" stroke="#4c1700" stroke-width="4"/>
    <circle cx="873" cy="862" r="33" fill="url(#buttonWhite)" stroke="#4d4944" stroke-width="4"/>
    <circle cx="565" cy="847" r="8" fill="#ffc2b7" opacity="0.45"/>
    <circle cx="664" cy="847" r="8" fill="#ffc2b7" opacity="0.45"/>
    <circle cx="762" cy="847" r="8" fill="#ffe0ad" opacity="0.45"/>
    <circle cx="860" cy="847" r="8" fill="#fff" opacity="0.55"/>
  </g>

  <path d="M985 817h276l23 16v113l-23 16H985l-23-16V833z" fill="#0c0b0d" stroke="#ffb33d" stroke-width="2" opacity="0.92"/>
  <path d="M998 828h250" stroke="#ff7a18" stroke-width="1" opacity="0.55"/>
  <rect x="535" y="814" width="390" height="128" rx="4" fill="none" stroke="#ffffff" opacity="0.08"/>
  <rect x="333" y="812" width="176" height="132" rx="4" fill="none" stroke="#ffffff" opacity="0.08"/>

  <rect x="0" y="0" width="1536" height="1024" fill="none" stroke="#000" stroke-width="12" opacity="0.65"/>
</svg>
